<svg xmlns="http://www.w3.org/2000/svg" xmlns:xlink="http://www.w3.org/1999/xlink" width="150" zoomAndPan="magnify" viewBox="0 0 112.5 37.5" height="50" preserveAspectRatio="xMidYMid meet" version="1.0"><defs><g/><clipPath id="fcfeb47fa8"><path d="M 2.417969 1.449219 L 35.722656 1.449219 L 35.722656 34.753906 L 2.417969 34.753906 Z M 2.417969 1.449219 " clip-rule="nonzero"/></clipPath><clipPath id="0b674b8e47"><path d="M 19 18 L 35.722656 18 L 35.722656 34.753906 L 19 34.753906 Z M 19 18 " clip-rule="nonzero"/></clipPath><clipPath id="8d4d77b7eb"><path d="M 2.417969 1.449219 L 35.722656 1.449219 L 35.722656 34.753906 L 2.417969 34.753906 Z M 2.417969 1.449219 " clip-rule="nonzero"/></clipPath></defs><g clip-path="url(#fcfeb47fa8)"><path fill="#ffffff" d="M 27.640625 1.449219 C 22.996094 1.449219 19.234375 5.214844 19.234375 9.855469 L 19.234375 18.265625 L 10.824219 18.265625 C 6.179688 18.265625 2.417969 22.027344 2.417969 26.671875 C 2.417969 31.316406 6.179688 35.078125 10.824219 35.078125 L 36.046875 35.078125 L 36.046875 9.855469 C 36.046875 5.214844 32.28125 1.449219 27.640625 1.449219 Z M 27.640625 1.449219 " fill-opacity="1" fill-rule="nonzero"/></g><g clip-path="url(#0b674b8e47)"><path fill="#8c52ff" d="M 19.234375 18.265625 L 36.046875 18.265625 L 36.046875 35.078125 L 19.234375 35.078125 Z M 19.234375 18.265625 " fill-opacity="1" fill-rule="nonzero"/></g><g clip-path="url(#8d4d77b7eb)"><path fill="#ffffff" d="M 36.046875 9.855469 L 36.046875 18.265625 L 19.234375 18.265625 L 19.234375 9.855469 C 19.234375 5.214844 22.996094 1.449219 27.640625 1.449219 C 32.28125 1.449219 36.046875 5.214844 36.046875 9.855469 Z M 2.417969 26.671875 C 2.417969 31.316406 6.179688 35.078125 10.824219 35.078125 L 19.230469 35.078125 L 19.230469 18.265625 L 10.824219 18.265625 C 6.179688 18.265625 2.417969 22.027344 2.417969 26.671875 Z M 32.648438 24.972656 L 29.339844 24.972656 L 29.339844 21.664062 L 25.9375 21.664062 L 25.9375 24.972656 L 22.632812 24.972656 L 22.632812 28.371094 L 25.9375 28.371094 L 25.9375 31.679688 L 29.339844 31.679688 L 29.339844 28.371094 L 32.644531 28.371094 L 32.644531 24.972656 Z M 32.648438 24.972656 " fill-opacity="1" fill-rule="nonzero"/></g><g fill="#ffffff" fill-opacity="1"><g transform="translate(39.336558, 18.235538)"><g><path d="M 3.890625 -7.125 C 4.804688 -7.125 5.519531 -6.898438 6.03125 -6.453125 C 6.539062 -6.015625 6.835938 -5.4375 6.921875 -4.71875 L 6.921875 -4.609375 L 5.53125 -4.609375 L 5.515625 -4.71875 C 5.328125 -5.625 4.78125 -6.078125 3.875 -6.078125 C 3.3125 -6.078125 2.859375 -5.847656 2.515625 -5.390625 C 2.171875 -4.941406 2 -4.320312 2 -3.53125 C 2 -2.6875 2.171875 -2.035156 2.515625 -1.578125 C 2.859375 -1.128906 3.304688 -0.90625 3.859375 -0.90625 C 4.304688 -0.90625 4.660156 -1.03125 4.921875 -1.28125 C 5.191406 -1.53125 5.378906 -1.875 5.484375 -2.3125 L 5.5 -2.421875 L 6.890625 -2.421875 L 6.875 -2.3125 C 6.800781 -1.5625 6.488281 -0.960938 5.9375 -0.515625 C 5.394531 -0.078125 4.679688 0.140625 3.796875 0.140625 C 2.804688 0.140625 2.007812 -0.179688 1.40625 -0.828125 C 0.8125 -1.472656 0.515625 -2.347656 0.515625 -3.453125 C 0.515625 -4.578125 0.832031 -5.46875 1.46875 -6.125 C 2.101562 -6.789062 2.910156 -7.125 3.890625 -7.125 Z M 3.890625 -7.125 "/></g></g></g><g fill="#ffffff" fill-opacity="1"><g transform="translate(46.6021, 18.235538)"><g><path d="M 2.296875 0 L 0.90625 0 L 0.90625 -6.984375 L 2.296875 -6.984375 Z M 2.296875 0 "/></g></g></g><g fill="#ffffff" fill-opacity="1"><g transform="translate(49.556888, 18.235538)"><g><path d="M 5.9375 -1.171875 L 5.9375 0 L 0.90625 0 L 0.90625 -6.984375 L 2.296875 -6.984375 L 2.296875 -1.171875 Z M 5.9375 -1.171875 "/></g></g></g><g fill="#ffffff" fill-opacity="1"><g transform="translate(55.668846, 18.235538)"><g><path d="M 2.296875 0 L 0.90625 0 L 0.90625 -6.984375 L 2.296875 -6.984375 Z M 2.296875 0 "/></g></g></g><g fill="#ffffff" fill-opacity="1"><g transform="translate(58.623634, 18.235538)"><g><path d="M 7.03125 0 L 5.125 0 L 2.25 -5.3125 C 2.28125 -4.675781 2.296875 -3.957031 2.296875 -3.15625 L 2.296875 0 L 0.90625 0 L 0.90625 -6.984375 L 2.75 -6.984375 L 5.6875 -1.578125 C 5.65625 -2.203125 5.640625 -2.9375 5.640625 -3.78125 L 5.640625 -6.984375 L 7.03125 -6.984375 Z M 7.03125 0 "/></g></g></g><g fill="#ffffff" fill-opacity="1"><g transform="translate(66.314178, 18.235538)"><g><path d="M 2.296875 0 L 0.90625 0 L 0.90625 -6.984375 L 2.296875 -6.984375 Z M 2.296875 0 "/></g></g></g><g fill="#ffffff" fill-opacity="1"><g transform="translate(69.268966, 18.235538)"><g><path d="M 5.21875 0 L 3.5 -2.640625 L 1.859375 0 L 0.1875 0 L 2.6875 -3.53125 L 0.359375 -6.984375 L 1.984375 -6.984375 L 3.546875 -4.40625 L 5.1875 -6.984375 L 6.796875 -6.984375 L 4.359375 -3.546875 L 6.84375 0 Z M 5.21875 0 "/></g></g></g><g fill="#ffffff" fill-opacity="1"><g transform="translate(76.109502, 18.235538)"><g><path d="M 3.890625 -7.125 C 4.804688 -7.125 5.519531 -6.898438 6.03125 -6.453125 C 6.539062 -6.015625 6.835938 -5.4375 6.921875 -4.71875 L 6.921875 -4.609375 L 5.53125 -4.609375 L 5.515625 -4.71875 C 5.328125 -5.625 4.78125 -6.078125 3.875 -6.078125 C 3.3125 -6.078125 2.859375 -5.847656 2.515625 -5.390625 C 2.171875 -4.941406 2 -4.320312 2 -3.53125 C 2 -2.6875 2.171875 -2.035156 2.515625 -1.578125 C 2.859375 -1.128906 3.304688 -0.90625 3.859375 -0.90625 C 4.304688 -0.90625 4.660156 -1.03125 4.921875 -1.28125 C 5.191406 -1.53125 5.378906 -1.875 5.484375 -2.3125 L 5.5 -2.421875 L 6.890625 -2.421875 L 6.875 -2.3125 C 6.800781 -1.5625 6.488281 -0.960938 5.9375 -0.515625 C 5.394531 -0.078125 4.679688 0.140625 3.796875 0.140625 C 2.804688 0.140625 2.007812 -0.179688 1.40625 -0.828125 C 0.8125 -1.472656 0.515625 -2.347656 0.515625 -3.453125 C 0.515625 -4.578125 0.832031 -5.46875 1.46875 -6.125 C 2.101562 -6.789062 2.910156 -7.125 3.890625 -7.125 Z M 3.890625 -7.125 "/></g></g></g><g fill="#ffffff" fill-opacity="1"><g transform="translate(83.375044, 18.235538)"><g><path d="M 4.6875 -2.109375 L 2.34375 -2.109375 L 1.640625 0 L 0.15625 0 L 2.671875 -6.984375 L 4.421875 -6.984375 L 6.890625 0 L 5.375 0 Z M 3.53125 -5.796875 L 2.6875 -3.203125 L 4.328125 -3.203125 Z M 3.53125 -5.796875 "/></g></g></g><g fill="#ffffff" fill-opacity="1"><g transform="translate(90.215581, 18.235538)"><g><path d="M 5.96875 -1.765625 C 6.050781 -0.929688 6.21875 -0.34375 6.46875 0 L 4.9375 0 C 4.769531 -0.46875 4.65625 -0.988281 4.59375 -1.5625 C 4.5 -2.351562 4.1875 -2.765625 3.65625 -2.796875 C 3.53125 -2.804688 3.347656 -2.8125 3.109375 -2.8125 L 2.296875 -2.8125 L 2.296875 0 L 0.90625 0 L 0.90625 -6.984375 L 3.453125 -6.984375 C 3.835938 -6.984375 4.175781 -6.96875 4.46875 -6.9375 C 5.019531 -6.863281 5.460938 -6.675781 5.796875 -6.375 C 6.128906 -6.082031 6.296875 -5.648438 6.296875 -5.078125 C 6.296875 -4.640625 6.171875 -4.273438 5.921875 -3.984375 C 5.679688 -3.703125 5.351562 -3.5 4.9375 -3.375 C 5.53125 -3.144531 5.875 -2.609375 5.96875 -1.765625 Z M 2.296875 -3.859375 L 3.265625 -3.859375 C 3.535156 -3.859375 3.722656 -3.863281 3.828125 -3.875 C 4.492188 -3.925781 4.828125 -4.257812 4.828125 -4.875 C 4.828125 -5.1875 4.75 -5.414062 4.59375 -5.5625 C 4.4375 -5.71875 4.207031 -5.816406 3.90625 -5.859375 C 3.75 -5.878906 3.554688 -5.890625 3.328125 -5.890625 L 2.296875 -5.890625 Z M 2.296875 -3.859375 "/></g></g></g><g fill="#ffffff" fill-opacity="1"><g transform="translate(96.833498, 18.235538)"><g><path d="M 5.9375 -1.109375 L 5.9375 0 L 0.90625 0 L 0.90625 -6.984375 L 5.84375 -6.984375 L 5.84375 -5.890625 L 2.296875 -5.890625 L 2.296875 -4.046875 L 5.59375 -4.046875 L 5.59375 -2.953125 L 2.296875 -2.953125 L 2.296875 -1.109375 Z M 5.9375 -1.109375 "/></g></g></g><g fill="#ffffff" fill-opacity="1"><g transform="translate(40.825517, 28.03526)"><g><path d="M 0.265625 -1.984375 C 0.265625 -2.378906 0.347656 -2.726562 0.515625 -3.03125 C 0.691406 -3.34375 0.925781 -3.582031 1.21875 -3.75 C 1.519531 -3.925781 1.851562 -4.015625 2.21875 -4.015625 C 2.664062 -4.015625 3.046875 -3.910156 3.359375 -3.703125 C 3.671875 -3.492188 3.898438 -3.195312 4.046875 -2.8125 L 3.578125 -2.8125 C 3.460938 -3.082031 3.289062 -3.289062 3.0625 -3.4375 C 2.832031 -3.59375 2.550781 -3.671875 2.21875 -3.671875 C 1.925781 -3.671875 1.660156 -3.601562 1.421875 -3.46875 C 1.191406 -3.332031 1.007812 -3.132812 0.875 -2.875 C 0.75 -2.625 0.6875 -2.328125 0.6875 -1.984375 C 0.6875 -1.648438 0.75 -1.351562 0.875 -1.09375 C 1.007812 -0.84375 1.191406 -0.648438 1.421875 -0.515625 C 1.660156 -0.378906 1.925781 -0.3125 2.21875 -0.3125 C 2.550781 -0.3125 2.832031 -0.382812 3.0625 -0.53125 C 3.289062 -0.6875 3.460938 -0.894531 3.578125 -1.15625 L 4.046875 -1.15625 C 3.898438 -0.78125 3.664062 -0.488281 3.34375 -0.28125 C 3.03125 -0.0703125 2.65625 0.03125 2.21875 0.03125 C 1.851562 0.03125 1.519531 -0.0507812 1.21875 -0.21875 C 0.925781 -0.394531 0.691406 -0.632812 0.515625 -0.9375 C 0.347656 -1.25 0.265625 -1.597656 0.265625 -1.984375 Z M 0.265625 -1.984375 "/></g></g></g><g fill="#ffffff" fill-opacity="1"><g transform="translate(45.417243, 28.03526)"><g><path d="M 2.765625 -0.9375 L 0.953125 -0.9375 L 0.609375 0 L 0.1875 0 L 1.625 -3.921875 L 2.078125 -3.921875 L 3.53125 0 L 3.109375 0 Z M 2.640625 -1.28125 L 1.859375 -3.421875 L 1.0625 -1.28125 Z M 2.640625 -1.28125 "/></g></g></g><g fill="#ffffff" fill-opacity="1"><g transform="translate(49.332719, 28.03526)"><g><path d="M 2.578125 0 L 1.59375 -1.65625 L 0.859375 -1.65625 L 0.859375 0 L 0.453125 0 L 0.453125 -3.96875 L 1.65625 -3.96875 C 2.09375 -3.96875 2.425781 -3.863281 2.65625 -3.65625 C 2.882812 -3.445312 3 -3.171875 3 -2.828125 C 3 -2.535156 2.914062 -2.285156 2.75 -2.078125 C 2.59375 -1.878906 2.351562 -1.75 2.03125 -1.6875 L 3.046875 0 Z M 0.859375 -1.984375 L 1.65625 -1.984375 C 1.96875 -1.984375 2.203125 -2.054688 2.359375 -2.203125 C 2.515625 -2.359375 2.59375 -2.566406 2.59375 -2.828125 C 2.59375 -3.085938 2.515625 -3.285156 2.359375 -3.421875 C 2.210938 -3.566406 1.976562 -3.640625 1.65625 -3.640625 L 0.859375 -3.640625 Z M 0.859375 -1.984375 "/></g></g></g><g fill="#ffffff" fill-opacity="1"><g transform="translate(52.878816, 28.03526)"><g><path d="M 0.859375 -3.65625 L 0.859375 -2.171875 L 2.359375 -2.171875 L 2.359375 -1.84375 L 0.859375 -1.84375 L 0.859375 -0.328125 L 2.53125 -0.328125 L 2.53125 0 L 0.453125 0 L 0.453125 -3.984375 L 2.53125 -3.984375 L 2.53125 -3.65625 Z M 0.859375 -3.65625 "/></g></g></g><g fill="#ffffff" fill-opacity="1"><g transform="translate(55.947559, 28.03526)"><g><path d="M 0.859375 -3.65625 L 0.859375 -2.171875 L 2.359375 -2.171875 L 2.359375 -1.84375 L 0.859375 -1.84375 L 0.859375 -0.328125 L 2.53125 -0.328125 L 2.53125 0 L 0.453125 0 L 0.453125 -3.984375 L 2.53125 -3.984375 L 2.53125 -3.65625 Z M 0.859375 -3.65625 "/></g></g></g><g fill="#ffffff" fill-opacity="1"><g transform="translate(59.016302, 28.03526)"><g><path d="M 2.578125 0 L 1.59375 -1.65625 L 0.859375 -1.65625 L 0.859375 0 L 0.453125 0 L 0.453125 -3.96875 L 1.65625 -3.96875 C 2.09375 -3.96875 2.425781 -3.863281 2.65625 -3.65625 C 2.882812 -3.445312 3 -3.171875 3 -2.828125 C 3 -2.535156 2.914062 -2.285156 2.75 -2.078125 C 2.59375 -1.878906 2.351562 -1.75 2.03125 -1.6875 L 3.046875 0 Z M 0.859375 -1.984375 L 1.65625 -1.984375 C 1.96875 -1.984375 2.203125 -2.054688 2.359375 -2.203125 C 2.515625 -2.359375 2.59375 -2.566406 2.59375 -2.828125 C 2.59375 -3.085938 2.515625 -3.285156 2.359375 -3.421875 C 2.210938 -3.566406 1.976562 -3.640625 1.65625 -3.640625 L 0.859375 -3.640625 Z M 0.859375 -1.984375 "/></g></g></g><g fill="#ffffff" fill-opacity="1"><g transform="translate(62.562398, 28.03526)"><g><path d="M 1.65625 0.046875 C 1.394531 0.046875 1.164062 0 0.96875 -0.09375 C 0.769531 -0.1875 0.613281 -0.3125 0.5 -0.46875 C 0.382812 -0.632812 0.320312 -0.820312 0.3125 -1.03125 L 0.734375 -1.03125 C 0.753906 -0.832031 0.835938 -0.660156 0.984375 -0.515625 C 1.140625 -0.367188 1.363281 -0.296875 1.65625 -0.296875 C 1.925781 -0.296875 2.140625 -0.363281 2.296875 -0.5 C 2.453125 -0.632812 2.53125 -0.8125 2.53125 -1.03125 C 2.53125 -1.195312 2.488281 -1.332031 2.40625 -1.4375 C 2.320312 -1.539062 2.210938 -1.617188 2.078125 -1.671875 C 1.953125 -1.722656 1.773438 -1.78125 1.546875 -1.84375 C 1.285156 -1.914062 1.078125 -1.984375 0.921875 -2.046875 C 0.765625 -2.117188 0.628906 -2.226562 0.515625 -2.375 C 0.410156 -2.519531 0.359375 -2.710938 0.359375 -2.953125 C 0.359375 -3.160156 0.410156 -3.34375 0.515625 -3.5 C 0.617188 -3.664062 0.765625 -3.789062 0.953125 -3.875 C 1.148438 -3.96875 1.375 -4.015625 1.625 -4.015625 C 1.988281 -4.015625 2.285156 -3.925781 2.515625 -3.75 C 2.742188 -3.570312 2.875 -3.335938 2.90625 -3.046875 L 2.46875 -3.046875 C 2.445312 -3.210938 2.359375 -3.359375 2.203125 -3.484375 C 2.054688 -3.617188 1.851562 -3.6875 1.59375 -3.6875 C 1.351562 -3.6875 1.148438 -3.617188 0.984375 -3.484375 C 0.828125 -3.359375 0.75 -3.1875 0.75 -2.96875 C 0.75 -2.800781 0.789062 -2.664062 0.875 -2.5625 C 0.96875 -2.457031 1.078125 -2.378906 1.203125 -2.328125 C 1.335938 -2.273438 1.519531 -2.21875 1.75 -2.15625 C 2 -2.082031 2.203125 -2.007812 2.359375 -1.9375 C 2.523438 -1.875 2.660156 -1.769531 2.765625 -1.625 C 2.878906 -1.476562 2.9375 -1.285156 2.9375 -1.046875 C 2.9375 -0.859375 2.882812 -0.679688 2.78125 -0.515625 C 2.6875 -0.347656 2.539062 -0.210938 2.34375 -0.109375 C 2.15625 -0.00390625 1.925781 0.046875 1.65625 0.046875 Z M 1.65625 0.046875 "/></g></g></g><g fill="#ffffff" fill-opacity="1"><g transform="translate(66.023252, 28.03526)"><g/></g></g><g fill="#ffffff" fill-opacity="1"><g transform="translate(67.790641, 28.03526)"><g><path d="M 0.265625 -1.984375 C 0.265625 -2.378906 0.347656 -2.726562 0.515625 -3.03125 C 0.691406 -3.34375 0.925781 -3.582031 1.21875 -3.75 C 1.519531 -3.925781 1.851562 -4.015625 2.21875 -4.015625 C 2.664062 -4.015625 3.046875 -3.910156 3.359375 -3.703125 C 3.671875 -3.492188 3.898438 -3.195312 4.046875 -2.8125 L 3.578125 -2.8125 C 3.460938 -3.082031 3.289062 -3.289062 3.0625 -3.4375 C 2.832031 -3.59375 2.550781 -3.671875 2.21875 -3.671875 C 1.925781 -3.671875 1.660156 -3.601562 1.421875 -3.46875 C 1.191406 -3.332031 1.007812 -3.132812 0.875 -2.875 C 0.75 -2.625 0.6875 -2.328125 0.6875 -1.984375 C 0.6875 -1.648438 0.75 -1.351562 0.875 -1.09375 C 1.007812 -0.84375 1.191406 -0.648438 1.421875 -0.515625 C 1.660156 -0.378906 1.925781 -0.3125 2.21875 -0.3125 C 2.550781 -0.3125 2.832031 -0.382812 3.0625 -0.53125 C 3.289062 -0.6875 3.460938 -0.894531 3.578125 -1.15625 L 4.046875 -1.15625 C 3.898438 -0.78125 3.664062 -0.488281 3.34375 -0.28125 C 3.03125 -0.0703125 2.65625 0.03125 2.21875 0.03125 C 1.851562 0.03125 1.519531 -0.0507812 1.21875 -0.21875 C 0.925781 -0.394531 0.691406 -0.632812 0.515625 -0.9375 C 0.347656 -1.25 0.265625 -1.597656 0.265625 -1.984375 Z M 0.265625 -1.984375 "/></g></g></g><g fill="#ffffff" fill-opacity="1"><g transform="translate(72.382368, 28.03526)"><g><path d="M 2.234375 0.046875 C 1.867188 0.046875 1.535156 -0.0390625 1.234375 -0.21875 C 0.941406 -0.394531 0.707031 -0.632812 0.53125 -0.9375 C 0.351562 -1.25 0.265625 -1.597656 0.265625 -1.984375 C 0.265625 -2.378906 0.351562 -2.726562 0.53125 -3.03125 C 0.707031 -3.34375 0.941406 -3.582031 1.234375 -3.75 C 1.535156 -3.925781 1.867188 -4.015625 2.234375 -4.015625 C 2.609375 -4.015625 2.945312 -3.925781 3.25 -3.75 C 3.550781 -3.582031 3.785156 -3.34375 3.953125 -3.03125 C 4.117188 -2.726562 4.203125 -2.378906 4.203125 -1.984375 C 4.203125 -1.597656 4.117188 -1.25 3.953125 -0.9375 C 3.785156 -0.632812 3.550781 -0.394531 3.25 -0.21875 C 2.945312 -0.0390625 2.609375 0.046875 2.234375 0.046875 Z M 2.234375 -0.3125 C 2.535156 -0.3125 2.800781 -0.378906 3.03125 -0.515625 C 3.269531 -0.648438 3.457031 -0.84375 3.59375 -1.09375 C 3.726562 -1.351562 3.796875 -1.648438 3.796875 -1.984375 C 3.796875 -2.328125 3.726562 -2.625 3.59375 -2.875 C 3.457031 -3.132812 3.269531 -3.332031 3.03125 -3.46875 C 2.800781 -3.601562 2.535156 -3.671875 2.234375 -3.671875 C 1.941406 -3.671875 1.675781 -3.601562 1.4375 -3.46875 C 1.207031 -3.332031 1.023438 -3.132812 0.890625 -2.875 C 0.753906 -2.625 0.6875 -2.328125 0.6875 -1.984375 C 0.6875 -1.648438 0.753906 -1.351562 0.890625 -1.09375 C 1.023438 -0.84375 1.207031 -0.648438 1.4375 -0.515625 C 1.675781 -0.378906 1.941406 -0.3125 2.234375 -0.3125 Z M 2.234375 -0.3125 "/></g></g></g><g fill="#ffffff" fill-opacity="1"><g transform="translate(77.0707, 28.03526)"><g><path d="M 3.453125 0 L 3.046875 0 L 0.859375 -3.34375 L 0.859375 0 L 0.453125 0 L 0.453125 -3.96875 L 0.859375 -3.96875 L 3.046875 -0.640625 L 3.046875 -3.96875 L 3.453125 -3.96875 Z M 3.453125 0 "/></g></g></g><g fill="#ffffff" fill-opacity="1"><g transform="translate(81.17939, 28.03526)"><g><path d="M 3.453125 0 L 3.046875 0 L 0.859375 -3.34375 L 0.859375 0 L 0.453125 0 L 0.453125 -3.96875 L 0.859375 -3.96875 L 3.046875 -0.640625 L 3.046875 -3.96875 L 3.453125 -3.96875 Z M 3.453125 0 "/></g></g></g><g fill="#ffffff" fill-opacity="1"><g transform="translate(85.28808, 28.03526)"><g><path d="M 0.859375 -3.65625 L 0.859375 -2.171875 L 2.359375 -2.171875 L 2.359375 -1.84375 L 0.859375 -1.84375 L 0.859375 -0.328125 L 2.53125 -0.328125 L 2.53125 0 L 0.453125 0 L 0.453125 -3.984375 L 2.53125 -3.984375 L 2.53125 -3.65625 Z M 0.859375 -3.65625 "/></g></g></g><g fill="#ffffff" fill-opacity="1"><g transform="translate(88.356823, 28.03526)"><g><path d="M 0.265625 -1.984375 C 0.265625 -2.378906 0.347656 -2.726562 0.515625 -3.03125 C 0.691406 -3.34375 0.925781 -3.582031 1.21875 -3.75 C 1.519531 -3.925781 1.851562 -4.015625 2.21875 -4.015625 C 2.664062 -4.015625 3.046875 -3.910156 3.359375 -3.703125 C 3.671875 -3.492188 3.898438 -3.195312 4.046875 -2.8125 L 3.578125 -2.8125 C 3.460938 -3.082031 3.289062 -3.289062 3.0625 -3.4375 C 2.832031 -3.59375 2.550781 -3.671875 2.21875 -3.671875 C 1.925781 -3.671875 1.660156 -3.601562 1.421875 -3.46875 C 1.191406 -3.332031 1.007812 -3.132812 0.875 -2.875 C 0.75 -2.625 0.6875 -2.328125 0.6875 -1.984375 C 0.6875 -1.648438 0.75 -1.351562 0.875 -1.09375 C 1.007812 -0.84375 1.191406 -0.648438 1.421875 -0.515625 C 1.660156 -0.378906 1.925781 -0.3125 2.21875 -0.3125 C 2.550781 -0.3125 2.832031 -0.382812 3.0625 -0.53125 C 3.289062 -0.6875 3.460938 -0.894531 3.578125 -1.15625 L 4.046875 -1.15625 C 3.898438 -0.78125 3.664062 -0.488281 3.34375 -0.28125 C 3.03125 -0.0703125 2.65625 0.03125 2.21875 0.03125 C 1.851562 0.03125 1.519531 -0.0507812 1.21875 -0.21875 C 0.925781 -0.394531 0.691406 -0.632812 0.515625 -0.9375 C 0.347656 -1.25 0.265625 -1.597656 0.265625 -1.984375 Z M 0.265625 -1.984375 "/></g></g></g><g fill="#ffffff" fill-opacity="1"><g transform="translate(92.948548, 28.03526)"><g><path d="M 2.78125 -3.96875 L 2.78125 -3.640625 L 1.671875 -3.640625 L 1.671875 0 L 1.28125 0 L 1.28125 -3.640625 L 0.171875 -3.640625 L 0.171875 -3.96875 Z M 2.78125 -3.96875 "/></g></g></g><g fill="#ffffff" fill-opacity="1"><g transform="translate(96.113899, 28.03526)"><g><path d="M 0.859375 -3.65625 L 0.859375 -2.171875 L 2.359375 -2.171875 L 2.359375 -1.84375 L 0.859375 -1.84375 L 0.859375 -0.328125 L 2.53125 -0.328125 L 2.53125 0 L 0.453125 0 L 0.453125 -3.984375 L 2.53125 -3.984375 L 2.53125 -3.65625 Z M 0.859375 -3.65625 "/></g></g></g><g fill="#ffffff" fill-opacity="1"><g transform="translate(99.182642, 28.03526)"><g><path d="M 1.625 -3.96875 C 2.070312 -3.96875 2.453125 -3.890625 2.765625 -3.734375 C 3.078125 -3.578125 3.316406 -3.347656 3.484375 -3.046875 C 3.648438 -2.742188 3.734375 -2.390625 3.734375 -1.984375 C 3.734375 -1.566406 3.648438 -1.207031 3.484375 -0.90625 C 3.316406 -0.613281 3.078125 -0.390625 2.765625 -0.234375 C 2.453125 -0.078125 2.070312 0 1.625 0 L 0.453125 0 L 0.453125 -3.96875 Z M 1.625 -0.328125 C 2.1875 -0.328125 2.609375 -0.472656 2.890625 -0.765625 C 3.179688 -1.054688 3.328125 -1.460938 3.328125 -1.984375 C 3.328125 -2.503906 3.179688 -2.910156 2.890625 -3.203125 C 2.609375 -3.492188 2.1875 -3.640625 1.625 -3.640625 L 0.859375 -3.640625 L 0.859375 -0.328125 Z M 1.625 -0.328125 "/></g></g></g></svg>