<svg width="2500" height="424" viewBox="0 0 2500 424" fill="none" xmlns="http://www.w3.org/2000/svg">
<path d="M457.717 331.324V106.844H505.82V288.032H607.477V331.324H457.717ZM711.994 334.531C694.677 334.531 679.177 330.79 665.494 323.307C652.025 315.611 641.336 305.135 633.425 291.88C625.729 278.625 621.881 263.446 621.881 246.342C621.881 229.239 625.729 214.167 633.425 201.125C641.336 187.87 652.025 177.395 665.494 169.698C679.177 162.002 694.677 158.153 711.994 158.153C729.097 158.153 744.383 162.002 757.852 169.698C771.534 177.395 782.224 187.87 789.92 201.125C797.617 214.167 801.465 229.239 801.465 246.342C801.465 263.446 797.617 278.625 789.92 291.88C782.224 305.135 771.534 315.611 757.852 323.307C744.383 330.79 729.097 334.531 711.994 334.531ZM711.994 294.766C720.331 294.766 727.814 292.735 734.442 288.673C741.069 284.397 746.2 278.625 749.835 271.356C753.683 263.873 755.607 255.535 755.607 246.342C755.607 236.935 753.683 228.598 749.835 221.329C746.2 213.846 741.069 208.074 734.442 204.012C727.814 199.736 720.331 197.598 711.994 197.598C703.442 197.598 695.852 199.736 689.225 204.012C682.597 208.287 677.359 214.06 673.511 221.329C669.663 228.598 667.846 236.935 668.06 246.342C667.846 255.535 669.663 263.873 673.511 271.356C677.359 278.625 682.597 284.397 689.225 288.673C695.852 292.735 703.442 294.766 711.994 294.766ZM828.992 331.324V161.681H872.926L873.888 194.07L867.153 195.353C869.505 189.795 872.605 184.77 876.453 180.281C880.301 175.791 884.791 171.943 889.922 168.736C895.267 165.529 900.825 163.071 906.598 161.36C912.37 159.436 918.142 158.474 923.915 158.474C932.68 158.474 940.591 159.864 947.646 162.643C954.701 165.422 960.687 169.805 965.604 175.791C970.521 181.564 974.37 189.26 977.149 198.881L970.094 198.239L972.339 193.108C975.118 187.977 978.645 183.381 982.921 179.319C987.197 175.043 992.007 171.408 997.352 168.415C1002.7 165.209 1008.26 162.75 1014.03 161.04C1019.8 159.329 1025.47 158.474 1031.02 158.474C1044.28 158.474 1055.29 161.147 1064.05 166.491C1072.82 171.622 1079.34 179.426 1083.62 189.901C1088.11 200.377 1090.35 213.205 1090.35 228.384V331.324H1044.81V231.591C1044.81 223.894 1043.74 217.587 1041.61 212.67C1039.47 207.753 1036.37 204.119 1032.31 201.767C1028.24 199.201 1023.01 197.919 1016.59 197.919C1011.68 197.919 1007.08 198.774 1002.8 200.484C998.742 201.981 995.107 204.225 991.9 207.218C988.907 209.998 986.556 213.312 984.845 217.16C983.135 221.008 982.28 225.284 982.28 229.987V331.324H936.742V231.27C936.742 224.215 935.566 218.229 933.215 213.312C931.077 208.181 927.977 204.332 923.915 201.767C919.853 199.201 914.829 197.919 908.843 197.919C903.925 197.919 899.329 198.774 895.053 200.484C890.991 201.981 887.463 204.225 884.47 207.218C881.477 209.998 879.019 213.312 877.095 217.16C875.384 221.008 874.529 225.177 874.529 229.667V331.324H828.992ZM1207.79 334.531C1189.41 334.531 1173.37 330.79 1159.69 323.307C1146.01 315.824 1135.32 305.562 1127.62 292.521C1119.92 279.48 1116.08 264.515 1116.08 247.625C1116.08 234.584 1118.21 222.611 1122.49 211.708C1126.77 200.805 1132.75 191.398 1140.45 183.488C1148.14 175.364 1157.23 169.164 1167.71 164.888C1178.4 160.398 1189.94 158.153 1202.34 158.153C1213.89 158.153 1224.58 160.291 1234.41 164.567C1244.24 168.629 1252.69 174.508 1259.74 182.205C1267.01 189.688 1272.57 198.56 1276.42 208.822C1280.27 219.084 1281.98 230.308 1281.55 242.494L1281.23 256.604H1144.94L1137.56 228.704H1243.71L1238.58 234.477V227.422C1238.15 221.649 1236.23 216.412 1232.81 211.708C1229.6 207.005 1225.43 203.37 1220.3 200.805C1215.17 198.239 1209.4 196.957 1202.98 196.957C1193.58 196.957 1185.56 198.774 1178.93 202.408C1172.52 206.043 1167.6 211.387 1164.18 218.443C1160.76 225.498 1159.05 234.049 1159.05 244.097C1159.05 254.359 1161.19 263.232 1165.46 270.714C1169.95 278.197 1176.15 284.076 1184.06 288.352C1192.19 292.414 1201.7 294.445 1212.6 294.445C1220.09 294.445 1226.93 293.269 1233.13 290.918C1239.33 288.566 1245.95 284.504 1253.01 278.732L1274.82 309.197C1268.62 314.755 1261.77 319.459 1254.29 323.307C1246.81 326.942 1239.11 329.721 1231.2 331.645C1223.29 333.569 1215.49 334.531 1207.79 334.531ZM1329.39 405.082L1366.59 317.855L1367.23 344.152L1284.49 161.681H1336.12L1377.49 259.49C1379.2 263.125 1380.8 267.401 1382.3 272.318C1384.01 277.021 1385.4 281.618 1386.47 286.107L1378.77 289.314C1380.06 285.68 1381.55 281.511 1383.26 276.807C1384.97 272.104 1386.68 267.08 1388.39 261.735L1423.99 161.681H1475.94L1404.75 331.324L1375.57 405.082H1329.39ZM1569.79 334.531C1552.48 334.531 1536.98 330.79 1523.29 323.307C1509.82 315.611 1499.13 305.135 1491.22 291.88C1483.53 278.625 1479.68 263.446 1479.68 246.342C1479.68 229.239 1483.53 214.167 1491.22 201.125C1499.13 187.87 1509.82 177.395 1523.29 169.698C1536.98 162.002 1552.48 158.153 1569.79 158.153C1586.9 158.153 1602.18 162.002 1615.65 169.698C1629.33 177.395 1640.02 187.87 1647.72 201.125C1655.42 214.167 1659.26 229.239 1659.26 246.342C1659.26 263.446 1655.42 278.625 1647.72 291.88C1640.02 305.135 1629.33 315.611 1615.65 323.307C1602.18 330.79 1586.9 334.531 1569.79 334.531ZM1569.79 294.766C1578.13 294.766 1585.61 292.735 1592.24 288.673C1598.87 284.397 1604 278.625 1607.63 271.356C1611.48 263.873 1613.41 255.535 1613.41 246.342C1613.41 236.935 1611.48 228.598 1607.63 221.329C1604 213.846 1598.87 208.074 1592.24 204.012C1585.61 199.736 1578.13 197.598 1569.79 197.598C1561.24 197.598 1553.65 199.736 1547.02 204.012C1540.4 208.287 1535.16 214.06 1531.31 221.329C1527.46 228.598 1525.64 236.935 1525.86 246.342C1525.64 255.535 1527.46 263.873 1531.31 271.356C1535.16 278.625 1540.4 284.397 1547.02 288.673C1553.65 292.735 1561.24 294.766 1569.79 294.766ZM1693.53 331.324V106.844H1741.63V288.032H1843.29V331.324H1693.53ZM1932.41 334.531C1918.3 334.531 1905.58 330.683 1894.25 322.986C1882.92 315.29 1873.94 304.814 1867.31 291.559C1860.68 278.304 1857.37 263.125 1857.37 246.022C1857.37 228.918 1860.68 213.846 1867.31 200.805C1874.15 187.55 1883.34 177.181 1894.89 169.698C1906.43 162.002 1919.58 158.153 1934.33 158.153C1942.67 158.153 1950.26 159.436 1957.1 162.002C1964.16 164.353 1970.25 167.667 1975.38 171.943C1980.73 176.219 1985.22 181.136 1988.85 186.695C1992.48 192.253 1995.05 198.239 1996.55 204.653L1986.93 203.05V161.681H2032.14V331.324H1986.28V290.597L1996.55 289.635C1994.84 295.621 1992.06 301.287 1988.21 306.631C1984.36 311.976 1979.55 316.786 1973.78 321.062C1968.22 325.124 1961.91 328.438 1954.86 331.004C1947.8 333.355 1940.32 334.531 1932.41 334.531ZM1944.92 295.087C1953.47 295.087 1960.95 293.056 1967.36 288.994C1973.78 284.932 1978.69 279.266 1982.12 271.997C1985.75 264.515 1987.57 255.856 1987.57 246.022C1987.57 236.401 1985.75 227.956 1982.12 220.687C1978.69 213.418 1973.78 207.753 1967.36 203.691C1960.95 199.415 1953.47 197.277 1944.92 197.277C1936.58 197.277 1929.2 199.415 1922.79 203.691C1916.59 207.753 1911.67 213.418 1908.04 220.687C1904.4 227.956 1902.59 236.401 1902.59 246.022C1902.59 255.856 1904.4 264.515 1908.04 271.997C1911.67 279.266 1916.59 284.932 1922.79 288.994C1929.2 293.056 1936.58 295.087 1944.92 295.087ZM2169.19 334.531C2161.71 334.531 2154.44 333.462 2147.39 331.324C2140.33 329.186 2133.92 326.3 2128.15 322.666C2122.37 318.817 2117.56 314.542 2113.71 309.838C2109.87 304.921 2107.41 299.897 2106.34 294.766L2116.6 290.918L2114.36 330.683H2071.38V94.0161H2116.92V201.446L2108.26 197.919C2109.55 192.788 2112 187.87 2115.64 183.167C2119.27 178.25 2123.87 173.974 2129.43 170.34C2134.99 166.491 2141.08 163.498 2147.71 161.36C2154.34 159.222 2161.18 158.153 2168.23 158.153C2182.98 158.153 2196.13 162.002 2207.68 169.698C2219.22 177.181 2228.31 187.55 2234.93 200.805C2241.78 214.06 2245.2 229.239 2245.2 246.342C2245.2 263.446 2241.88 278.625 2235.25 291.88C2228.63 305.135 2219.54 315.611 2208 323.307C2196.67 330.79 2183.73 334.531 2169.19 334.531ZM2158.29 295.728C2166.84 295.728 2174.22 293.697 2180.42 289.635C2186.83 285.359 2191.86 279.587 2195.49 272.318C2199.12 264.835 2200.94 256.177 2200.94 246.342C2200.94 236.722 2199.12 228.17 2195.49 220.687C2192.07 213.205 2187.15 207.432 2180.74 203.37C2174.32 199.308 2166.84 197.277 2158.29 197.277C2149.74 197.277 2142.26 199.308 2135.84 203.37C2129.43 207.432 2124.4 213.205 2120.77 220.687C2117.14 228.17 2115.32 236.722 2115.32 246.342C2115.32 256.177 2117.14 264.835 2120.77 272.318C2124.4 279.587 2129.43 285.359 2135.84 289.635C2142.26 293.697 2149.74 295.728 2158.29 295.728ZM2330.31 334.531C2314.49 334.531 2300.38 331.966 2287.98 326.835C2275.79 321.49 2265.96 314.221 2258.48 305.028L2286.7 280.656C2293.33 287.711 2300.7 292.842 2308.83 296.049C2316.95 299.042 2325.07 300.538 2333.2 300.538C2336.4 300.538 2339.29 300.218 2341.86 299.576C2344.64 298.721 2346.99 297.652 2348.91 296.369C2350.83 294.873 2352.22 293.163 2353.08 291.238C2354.15 289.1 2354.68 286.856 2354.68 284.504C2354.68 279.801 2352.76 276.059 2348.91 273.28C2346.77 272.211 2343.46 270.928 2338.97 269.432C2334.48 267.721 2328.71 265.904 2321.65 263.98C2310.75 261.201 2301.45 257.994 2293.75 254.359C2286.27 250.511 2280.28 246.235 2275.79 241.532C2271.95 237.042 2268.95 232.232 2266.82 227.101C2264.89 221.756 2263.93 215.877 2263.93 209.463C2263.93 201.767 2265.64 194.819 2269.06 188.619C2272.48 182.205 2277.18 176.753 2283.17 172.264C2289.37 167.774 2296.43 164.353 2304.34 162.002C2312.25 159.436 2320.58 158.153 2329.35 158.153C2338.11 158.153 2346.67 159.222 2355 161.36C2363.34 163.498 2371.04 166.598 2378.09 170.66C2385.36 174.508 2391.67 179.105 2397.01 184.45L2372.64 211.387C2368.79 207.753 2364.41 204.439 2359.49 201.446C2354.79 198.453 2349.87 196.101 2344.74 194.391C2339.61 192.681 2335.01 191.826 2330.95 191.826C2327.32 191.826 2324 192.146 2321.01 192.788C2318.23 193.429 2315.88 194.391 2313.96 195.674C2312.03 196.957 2310.54 198.667 2309.47 200.805C2308.61 202.729 2308.18 204.867 2308.18 207.218C2308.18 209.57 2308.72 211.815 2309.79 213.953C2311.07 216.091 2312.78 217.908 2314.92 219.405C2317.27 220.687 2320.69 222.184 2325.18 223.894C2329.88 225.605 2336.19 227.529 2344.1 229.667C2354.36 232.446 2363.02 235.546 2370.08 238.966C2377.35 242.387 2383.12 246.342 2387.39 250.832C2391.03 254.68 2393.7 259.063 2395.41 263.98C2397.12 268.897 2397.98 274.349 2397.98 280.335C2397.98 290.811 2394.98 300.218 2389 308.555C2383.22 316.68 2375.21 323.093 2364.95 327.797C2354.68 332.286 2343.14 334.531 2330.31 334.531Z" fill="#061C3D"/>
<path d="M247.876 250.156L299.664 206.999L247.876 163.842" stroke="white" stroke-width="25.5745" stroke-linecap="round" stroke-linejoin="round"/>
<path d="M109.773 250.156L57.9851 206.999L109.773 163.842" stroke="white" stroke-width="25.5745" stroke-linecap="round" stroke-linejoin="round"/>
<path d="M144.294 301.941L213.345 112.051" stroke="#04285C" stroke-width="25.5745" stroke-linecap="round" stroke-linejoin="round"/>
<path d="M1.13562 91.9657L0.409783 91.613L178.223 6.93237V6.92969L178.226 6.93099L178.228 6.92969L178.229 6.93234L357.711 87.9063L357.208 331.583L357.213 331.585L178.229 416.258V416.264L178.222 416.261L0 335.342L0.418034 91.6251L1.13562 91.9657Z" fill="#0B63E5"/>
<path d="M247.876 250.156L299.664 206.999L247.876 163.842" stroke="white" stroke-width="25.5745" stroke-linecap="round" stroke-linejoin="round"/>
<path d="M109.773 250.156L57.9851 206.999L109.773 163.842" stroke="white" stroke-width="25.5745" stroke-linecap="round" stroke-linejoin="round"/>
<path d="M144.294 301.941L213.345 112.051" stroke="#04285C" stroke-width="25.5745" stroke-linecap="round" stroke-linejoin="round"/>
</svg>
