<svg width="2500" height="424" viewBox="0 0 2500 424" fill="none" xmlns="http://www.w3.org/2000/svg">
<path d="M457.716 331.395V106.914H505.819V288.102H607.477V331.395H457.716ZM711.993 334.601C694.676 334.601 679.176 330.86 665.494 323.377C652.025 315.681 641.335 305.205 633.425 291.95C625.728 278.695 621.88 263.516 621.88 246.413C621.88 229.309 625.728 214.237 633.425 201.196C641.335 187.941 652.025 177.465 665.494 169.768C679.176 162.072 694.676 158.224 711.993 158.224C729.096 158.224 744.382 162.072 757.851 169.768C771.534 177.465 782.223 187.941 789.92 201.196C797.616 214.237 801.465 229.309 801.465 246.413C801.465 263.516 797.616 278.695 789.92 291.95C782.223 305.205 771.534 315.681 757.851 323.377C744.382 330.86 729.096 334.601 711.993 334.601ZM711.993 294.836C720.331 294.836 727.814 292.805 734.441 288.743C741.069 284.467 746.2 278.695 749.834 271.426C753.682 263.943 755.606 255.606 755.606 246.413C755.606 237.006 753.682 228.668 749.834 221.399C746.2 213.916 741.069 208.144 734.441 204.082C727.814 199.806 720.331 197.668 711.993 197.668C703.441 197.668 695.852 199.806 689.224 204.082C682.597 208.358 677.359 214.13 673.511 221.399C669.662 228.668 667.845 237.006 668.059 246.413C667.845 255.606 669.662 263.943 673.511 271.426C677.359 278.695 682.597 284.467 689.224 288.743C695.852 292.805 703.441 294.836 711.993 294.836ZM828.991 331.395V161.751H872.925L873.887 194.141L867.153 195.423C869.505 189.865 872.604 184.841 876.453 180.351C880.301 175.862 884.791 172.013 889.922 168.806C895.266 165.6 900.825 163.141 906.597 161.431C912.37 159.506 918.142 158.544 923.914 158.544C932.68 158.544 940.59 159.934 947.645 162.713C954.7 165.493 960.686 169.875 965.604 175.862C970.521 181.634 974.369 189.33 977.148 198.951L970.093 198.31L972.338 193.179C975.117 188.048 978.645 183.451 982.921 179.389C987.197 175.113 992.007 171.479 997.352 168.486C1002.7 165.279 1008.25 162.82 1014.03 161.11C1019.8 159.4 1025.47 158.544 1031.02 158.544C1044.28 158.544 1055.29 161.217 1064.05 166.562C1072.82 171.693 1079.34 179.496 1083.62 189.972C1088.11 200.447 1090.35 213.275 1090.35 228.454V331.395H1044.81V231.661C1044.81 223.965 1043.74 217.658 1041.61 212.74C1039.47 207.823 1036.37 204.189 1032.31 201.837C1028.24 199.272 1023.01 197.989 1016.59 197.989C1011.68 197.989 1007.08 198.844 1002.8 200.554C998.741 202.051 995.107 204.296 991.9 207.289C988.907 210.068 986.555 213.382 984.845 217.23C983.134 221.078 982.279 225.354 982.279 230.058V331.395H936.742V231.34C936.742 224.285 935.566 218.299 933.214 213.382C931.076 208.251 927.976 204.403 923.914 201.837C919.852 199.272 914.828 197.989 908.842 197.989C903.925 197.989 899.328 198.844 895.053 200.554C890.991 202.051 887.463 204.296 884.47 207.289C881.477 210.068 879.018 213.382 877.094 217.23C875.384 221.078 874.529 225.247 874.529 229.737V331.395H828.991ZM1207.79 334.601C1189.41 334.601 1173.37 330.86 1159.69 323.377C1146.01 315.895 1135.32 305.633 1127.62 292.591C1119.92 279.55 1116.08 264.585 1116.08 247.695C1116.08 234.654 1118.21 222.682 1122.49 211.778C1126.77 200.875 1132.75 191.468 1140.45 183.558C1148.14 175.434 1157.23 169.234 1167.71 164.958C1178.4 160.469 1189.94 158.224 1202.34 158.224C1213.89 158.224 1224.57 160.362 1234.41 164.637C1244.24 168.7 1252.69 174.579 1259.74 182.275C1267.01 189.758 1272.57 198.63 1276.42 208.892C1280.27 219.154 1281.98 230.378 1281.55 242.564L1281.23 256.675H1144.94L1137.56 228.775H1243.71L1238.58 234.547V227.492C1238.15 221.72 1236.23 216.482 1232.81 211.778C1229.6 207.075 1225.43 203.441 1220.3 200.875C1215.17 198.31 1209.4 197.027 1202.98 197.027C1193.57 197.027 1185.56 198.844 1178.93 202.479C1172.52 206.113 1167.6 211.458 1164.18 218.513C1160.76 225.568 1159.05 234.12 1159.05 244.168C1159.05 254.43 1161.19 263.302 1165.46 270.785C1169.95 278.267 1176.15 284.147 1184.06 288.423C1192.19 292.485 1201.7 294.516 1212.6 294.516C1220.09 294.516 1226.93 293.34 1233.13 290.988C1239.33 288.636 1245.95 284.574 1253.01 278.802L1274.82 309.267C1268.62 314.826 1261.77 319.529 1254.29 323.377C1246.81 327.012 1239.11 329.791 1231.2 331.715C1223.29 333.639 1215.49 334.601 1207.79 334.601ZM1329.39 405.152L1366.59 317.926L1367.23 344.222L1284.49 161.751H1336.12L1377.49 259.561C1379.2 263.195 1380.8 267.471 1382.3 272.388C1384.01 277.092 1385.4 281.688 1386.47 286.178L1378.77 289.385C1380.06 285.75 1381.55 281.581 1383.26 276.878C1384.97 272.174 1386.68 267.15 1388.39 261.806L1423.99 161.751H1475.94L1404.75 331.395L1375.57 405.152H1329.39ZM1569.79 334.601C1552.48 334.601 1536.98 330.86 1523.29 323.377C1509.82 315.681 1499.13 305.205 1491.22 291.95C1483.53 278.695 1479.68 263.516 1479.68 246.413C1479.68 229.309 1483.53 214.237 1491.22 201.196C1499.13 187.941 1509.82 177.465 1523.29 169.768C1536.98 162.072 1552.48 158.224 1569.79 158.224C1586.9 158.224 1602.18 162.072 1615.65 169.768C1629.33 177.465 1640.02 187.941 1647.72 201.196C1655.42 214.237 1659.26 229.309 1659.26 246.413C1659.26 263.516 1655.42 278.695 1647.72 291.95C1640.02 305.205 1629.33 315.681 1615.65 323.377C1602.18 330.86 1586.9 334.601 1569.79 334.601ZM1569.79 294.836C1578.13 294.836 1585.61 292.805 1592.24 288.743C1598.87 284.467 1604 278.695 1607.63 271.426C1611.48 263.943 1613.41 255.606 1613.41 246.413C1613.41 237.006 1611.48 228.668 1607.63 221.399C1604 213.916 1598.87 208.144 1592.24 204.082C1585.61 199.806 1578.13 197.668 1569.79 197.668C1561.24 197.668 1553.65 199.806 1547.02 204.082C1540.4 208.358 1535.16 214.13 1531.31 221.399C1527.46 228.668 1525.64 237.006 1525.86 246.413C1525.64 255.606 1527.46 263.943 1531.31 271.426C1535.16 278.695 1540.4 284.467 1547.02 288.743C1553.65 292.805 1561.24 294.836 1569.79 294.836ZM1693.52 331.395V106.914H1741.63V288.102H1843.29V331.395H1693.52ZM1932.41 334.601C1918.3 334.601 1905.58 330.753 1894.25 323.057C1882.92 315.36 1873.94 304.884 1867.31 291.629C1860.68 278.374 1857.37 263.195 1857.37 246.092C1857.37 228.989 1860.68 213.916 1867.31 200.875C1874.15 187.62 1883.34 177.251 1894.89 169.768C1906.43 162.072 1919.58 158.224 1934.33 158.224C1942.67 158.224 1950.26 159.507 1957.1 162.072C1964.16 164.424 1970.25 167.737 1975.38 172.013C1980.73 176.289 1985.22 181.206 1988.85 186.765C1992.48 192.323 1995.05 198.31 1996.55 204.723L1986.93 203.12V161.751H2032.14V331.395H1986.28V290.667L1996.55 289.705C1994.84 295.691 1992.06 301.357 1988.21 306.702C1984.36 312.046 1979.55 316.857 1973.78 321.133C1968.22 325.195 1961.91 328.508 1954.86 331.074C1947.8 333.426 1940.32 334.601 1932.41 334.601ZM1944.92 295.157C1953.47 295.157 1960.95 293.126 1967.36 289.064C1973.78 285.002 1978.69 279.336 1982.12 272.068C1985.75 264.585 1987.57 255.926 1987.57 246.092C1987.57 236.471 1985.75 228.027 1982.12 220.758C1978.69 213.489 1973.78 207.823 1967.36 203.761C1960.95 199.485 1953.47 197.348 1944.92 197.348C1936.58 197.348 1929.2 199.485 1922.79 203.761C1916.59 207.823 1911.67 213.489 1908.04 220.758C1904.4 228.027 1902.58 236.471 1902.58 246.092C1902.58 255.926 1904.4 264.585 1908.04 272.068C1911.67 279.336 1916.59 285.002 1922.79 289.064C1929.2 293.126 1936.58 295.157 1944.92 295.157ZM2169.19 334.601C2161.71 334.601 2154.44 333.532 2147.39 331.395C2140.33 329.257 2133.92 326.37 2128.15 322.736C2122.37 318.888 2117.56 314.612 2113.71 309.909C2109.87 304.991 2107.41 299.967 2106.34 294.836L2116.6 290.988L2114.36 330.753H2071.38V94.0864H2116.92V201.516L2108.26 197.989C2109.55 192.858 2112 187.941 2115.64 183.237C2119.27 178.32 2123.87 174.044 2129.43 170.41C2134.99 166.562 2141.08 163.569 2147.71 161.431C2154.33 159.293 2161.18 158.224 2168.23 158.224C2182.98 158.224 2196.13 162.072 2207.68 169.768C2219.22 177.251 2228.31 187.62 2234.93 200.875C2241.78 214.13 2245.2 229.309 2245.2 246.413C2245.2 263.516 2241.88 278.695 2235.25 291.95C2228.63 305.205 2219.54 315.681 2208 323.377C2196.67 330.86 2183.73 334.601 2169.19 334.601ZM2158.29 295.798C2166.84 295.798 2174.22 293.767 2180.42 289.705C2186.83 285.429 2191.85 279.657 2195.49 272.388C2199.12 264.906 2200.94 256.247 2200.94 246.413C2200.94 236.792 2199.12 228.24 2195.49 220.758C2192.07 213.275 2187.15 207.503 2180.74 203.441C2174.32 199.379 2166.84 197.348 2158.29 197.348C2149.74 197.348 2142.26 199.379 2135.84 203.441C2129.43 207.503 2124.4 213.275 2120.77 220.758C2117.13 228.24 2115.32 236.792 2115.32 246.413C2115.32 256.247 2117.13 264.906 2120.77 272.388C2124.4 279.657 2129.43 285.429 2135.84 289.705C2142.26 293.767 2149.74 295.798 2158.29 295.798ZM2330.31 334.601C2314.49 334.601 2300.38 332.036 2287.98 326.905C2275.79 321.56 2265.96 314.291 2258.48 305.098L2286.7 280.726C2293.32 287.781 2300.7 292.912 2308.82 296.119C2316.95 299.112 2325.07 300.609 2333.2 300.609C2336.4 300.609 2339.29 300.288 2341.86 299.647C2344.63 298.791 2346.99 297.722 2348.91 296.44C2350.83 294.943 2352.22 293.233 2353.08 291.309C2354.15 289.171 2354.68 286.926 2354.68 284.574C2354.68 279.871 2352.76 276.13 2348.91 273.35C2346.77 272.281 2343.46 270.999 2338.97 269.502C2334.48 267.792 2328.71 265.974 2321.65 264.05C2310.75 261.271 2301.45 258.064 2293.75 254.43C2286.27 250.581 2280.28 246.306 2275.79 241.602C2271.95 237.113 2268.95 232.302 2266.81 227.171C2264.89 221.827 2263.93 215.947 2263.93 209.534C2263.93 201.837 2265.64 194.889 2269.06 188.689C2272.48 182.275 2277.18 176.824 2283.17 172.334C2289.37 167.844 2296.42 164.424 2304.33 162.072C2312.25 159.507 2320.58 158.224 2329.35 158.224C2338.11 158.224 2346.67 159.293 2355 161.431C2363.34 163.569 2371.04 166.668 2378.09 170.731C2385.36 174.579 2391.67 179.175 2397.01 184.52L2372.64 211.458C2368.79 207.823 2364.41 204.51 2359.49 201.516C2354.79 198.523 2349.87 196.172 2344.74 194.461C2339.61 192.751 2335.01 191.896 2330.95 191.896C2327.32 191.896 2324 192.217 2321.01 192.858C2318.23 193.499 2315.88 194.461 2313.96 195.744C2312.03 197.027 2310.53 198.737 2309.47 200.875C2308.61 202.799 2308.18 204.937 2308.18 207.289C2308.18 209.641 2308.72 211.885 2309.79 214.023C2311.07 216.161 2312.78 217.978 2314.92 219.475C2317.27 220.758 2320.69 222.254 2325.18 223.965C2329.88 225.675 2336.19 227.599 2344.1 229.737C2354.36 232.516 2363.02 235.616 2370.08 239.037C2377.34 242.457 2383.12 246.413 2387.39 250.902C2391.03 254.75 2393.7 259.133 2395.41 264.05C2397.12 268.968 2397.98 274.419 2397.98 280.405C2397.98 290.881 2394.98 300.288 2389 308.626C2383.22 316.75 2375.21 323.164 2364.94 327.867C2354.68 332.357 2343.14 334.601 2330.31 334.601Z" fill="white"/>
<path d="M247.866 250.227L299.655 207.07L247.866 163.913" stroke="white" stroke-width="25.5745" stroke-linecap="round" stroke-linejoin="round"/>
<path d="M109.764 250.227L57.9759 207.07L109.764 163.913" stroke="white" stroke-width="25.5745" stroke-linecap="round" stroke-linejoin="round"/>
<path d="M144.303 302.012L213.354 112.121" stroke="#04285C" stroke-width="25.5745" stroke-linecap="round" stroke-linejoin="round"/>
<path d="M1.13562 92.0361L0.409783 91.6833L178.223 7.00268V7L178.226 7.00131L178.228 7L178.229 7.00265L357.711 87.9766L357.208 331.653L357.213 331.656L178.229 416.328V416.334L178.222 416.331L0 335.412L0.418034 91.6954L1.13562 92.0361Z" fill="#0B63E5"/>
<path d="M247.866 250.227L299.655 207.07L247.866 163.913" stroke="white" stroke-width="25.5745" stroke-linecap="round" stroke-linejoin="round"/>
<path d="M109.764 250.227L57.9759 207.07L109.764 163.913" stroke="white" stroke-width="25.5745" stroke-linecap="round" stroke-linejoin="round"/>
<path d="M144.303 302.012L213.354 112.121" stroke="#04285C" stroke-width="25.5745" stroke-linecap="round" stroke-linejoin="round"/>
</svg>
